<svg xmlns="http://www.w3.org/2000/svg" xmlns:xlink="http://www.w3.org/1999/xlink" viewBox="0,0,256,256" width="26px" height="26px"><g fill="#a8004e" fill-rule="nonzero" stroke="none" stroke-width="1" stroke-linecap="butt" stroke-linejoin="miter" stroke-miterlimit="10" stroke-dasharray="" stroke-dashoffset="0" font-family="none" font-weight="none" font-size="none" text-anchor="none" style="mix-blend-mode: normal"><g transform="scale(9.84615,9.84615)"><path d="M21,0c-2.76172,0 -5,2.23828 -5,5c0,0.08594 0.02734,0.16406 0.03125,0.25l-7.84375,3.9375c-0.86719,-0.73047 -1.96484,-1.1875 -3.1875,-1.1875c-2.76172,0 -5,2.23828 -5,5c0,2.76172 2.23828,5 5,5c1.22266,0 2.32031,-0.45703 3.1875,-1.1875l7.84375,3.9375c-0.00391,0.08594 -0.03125,0.16406 -0.03125,0.25c0,2.76172 2.23828,5 5,5c2.76172,0 5,-2.23828 5,-5c0,-2.76172 -2.23828,-5 -5,-5c-1.22266,0 -2.32031,0.45703 -3.1875,1.1875l-7.84375,-3.9375c0.00391,-0.08594 0.03125,-0.16406 0.03125,-0.25c0,-0.08594 -0.02734,-0.16406 -0.03125,-0.25l7.84375,-3.9375c0.86719,0.73047 1.96484,1.1875 3.1875,1.1875c2.76172,0 5,-2.23828 5,-5c0,-2.76172 -2.23828,-5 -5,-5z"></path></g></g></svg>